<?xml version="1.0" encoding="utf-8"?>
<!-- Generator: Adobe Illustrator 22.0.1, SVG Export Plug-In . SVG Version: 6.00 Build 0)  -->
<svg version="1.1" id="Layer_1" xmlns="http://www.w3.org/2000/svg" xmlns:xlink="http://www.w3.org/1999/xlink" x="0px" y="0px"
	 viewBox="0 0 128 128" style="enable-background:new 0 0 128 128;" xml:space="preserve">
<style type="text/css">
	.st0{fill:#E61C5D;}
</style>
<g>
	<path class="st0" d="M127.8,117.9c-15.5-36-31-72.1-46.6-108.1c15.6,0,31.2,0,46.7,0c0,36.1,0,72.1,0,108.1
		C127.9,117.8,127.9,117.9,127.8,117.9z"/>
	<path class="st0" d="M1.7,117.8c0-36-0.1-72-0.1-108.1c15,0,30.1,0,45.2,0C31.9,45.8,16.9,81.8,1.7,117.8
		C1.8,117.8,1.7,117.8,1.7,117.8z"/>
	<path class="st0" d="M64.4,51.1c9.8,22.4,19.6,44.7,29.5,67.2c-0.2,0-0.4,0-0.5,0c-6.1,0-12.2,0-18.4,0c-0.3,0-0.5-0.1-0.6-0.4
		c-2.8-6.8-5.6-13.6-8.4-20.4c-0.1-0.3-0.2-0.5-0.3-0.8c-0.1-0.3-0.3-0.4-0.6-0.4c-6.6,0-13.1,0-19.7,0c-0.2,0-0.4,0-0.6,0
		C51.3,81.2,57.8,66.2,64.4,51.1z"/>
</g>
</svg>
