<?xml version="1.0" encoding="utf-8"?>
<!-- Generator: Adobe Illustrator 22.0.1, SVG Export Plug-In . SVG Version: 6.00 Build 0)  -->
<svg version="1.1" id="Layer_1" xmlns="http://www.w3.org/2000/svg" xmlns:xlink="http://www.w3.org/1999/xlink" x="0px" y="0px"
	 viewBox="0 0 111.2 128" style="enable-background:new 0 0 111.2 128;" xml:space="preserve">
<style type="text/css">
	.st0{fill:#90278E;}
</style>
<path class="st0" d="M0,1l10.1,112.9l45.1,12.6l45.2-12.6L110.5,1C110.5,1,0,1,0,1z M89.6,26.9l-3.3,37.6l0,0.2l0,0.5v0l-2.4,26.3
	l-0.3,2.3l-28.4,7.8v0l0,0l-28.3-7.9L25,72h13.9l1,11.1l15.4,4.2l0,0v0L70.7,83l1.6-18H40l-0.3-3l-0.6-7.1L38.8,51h34.7l1.3-14H21.9
	l-0.3-3L21,26.8L20.6,23h69.3C89.9,23,89.6,26.9,89.6,26.9z"/>
</svg>
