<?xml version="1.0" encoding="utf-8"?>
<!-- Generator: Adobe Illustrator 22.0.1, SVG Export Plug-In . SVG Version: 6.00 Build 0)  -->
<svg version="1.1" id="Layer_1" xmlns="http://www.w3.org/2000/svg" xmlns:xlink="http://www.w3.org/1999/xlink" x="0px" y="0px"
	 viewBox="0 0 111.3 125.3" style="enable-background:new 0 0 111.3 125.3;" xml:space="preserve">
<style type="text/css">
	.st0{fill:#E44D26;}
</style>
<path class="st0" d="M1.4-0.7l10,112.1l44.9,12.4l45-12.4l10-112.1C111.3-0.7,1.4-0.7,1.4-0.7z M90.5,25.9L89.9,33l-0.3,3.3H36.9
	l1.3,14h50.2L88,53.8l-3.2,36.1l-0.2,2.3l-28.2,7.7v0l0,0l-28.2-7.4l-1.9-21.2H40l1,10.9l15.3,4.1h0v-0.5l15.4-3.9l1.6-17.6H25.6
	l-3.4-38.1l-0.3-3.9h68.9C90.8,22.3,90.5,25.9,90.5,25.9z"/>
</svg>
