<?xml version="1.0" encoding="utf-8"?>
<!-- Generator: Adobe Illustrator 22.0.1, SVG Export Plug-In . SVG Version: 6.00 Build 0)  -->
<svg version="1.1" id="Layer_1" xmlns="http://www.w3.org/2000/svg" xmlns:xlink="http://www.w3.org/1999/xlink" x="0px" y="0px"
	 viewBox="0 0 20 20" style="enable-background:new 0 0 20 20;" xml:space="preserve">
<g>
	<g transform="translate(0.000000,618.000000) scale(0.100000,-0.100000)">
		<path d="M115.9,6171.3c-4.8-6.6-7.1-11.9-8.1-18.2c-1.1-7.5,0.1-15.7,3.6-23.1c6.5-14.1,21.1-25.5,36.2-28.4
			c4.1-0.7,14.9-0.7,18.5,0c7.3,1.6,13.1,4.5,18.3,9.4c2.2,2.1,6.2,7.3,7.7,10.1l1.1,2l-1.8-2c-7.5-8.3-19-11.2-33.4-8.8
			c-11.1,1.9-20.4,6.6-28.2,14.4c-13.5,13.4-18.1,31.8-11.6,46.7c0.4,0.9,0.7,1.6,0.6,1.6C118.7,6175.2,117.3,6173.4,115.9,6171.3z"
			/>
		<path d="M71.7,6158.1c-5.6-7.9-7.8-11.6-9.7-16.7c-4.3-10.8-4.9-24.3-1.7-36.8c2-8,5.3-15.1,10.5-22.9c3.3-5,4.7-6.6,9-11
			c10-10.1,20.9-16.8,33.9-21.1c10.6-3.5,26.9-3.9,39.9-1.1c17.8,3.9,32.5,14.8,41.6,30.7c1.5,2.6,3.6,7.2,3.6,7.9
			c0,0.2-0.7-0.6-1.6-1.7c-4.8-6.4-13.4-12.9-21.3-16.4c-9.1-3.9-17.9-5.5-28.5-5.2c-38.1,1.2-72.1,31.3-76.6,67.9
			c-1.3,10.5,0.8,23.1,5.3,32.1c0.5,1,0.9,1.8,0.8,1.8C77.1,6165.5,74.7,6162.2,71.7,6158.1z"/>
		<path d="M19.9,6139.7c-7.7-9.7-9.1-11.9-11.8-17.2c-5.5-11.1-8-23.2-7.5-35.8c1.5-39.7,28.4-77,67.7-94
			c10.2-4.4,17.7-6.3,29.4-7.4c7.3-0.7,20.5-0.5,26.7,0.5c17,2.5,31.3,8.6,43.8,18.4c10,7.9,20.8,21.5,25.2,31.8l0.8,1.9l-1.5-1.7
			c-9.1-10.5-19.5-17.5-32.6-22.1c-10-3.4-19.5-4.9-31.4-4.9c-12.9,0-22.9,1.5-33.2,4.8c-14.1,4.6-27.1,11.9-38.6,21.4
			c-4.6,3.9-12.2,11.6-15.8,16.1c-12.9,16.1-20.3,33.9-22.3,53.5c-0.5,4.5-0.2,15.6,0.5,19.9c1.1,7,3.3,14.5,5.9,20.1
			c0.7,1.6,1.3,2.9,1.2,2.9C26.4,6148,23.4,6144.2,19.9,6139.7z"/>
	</g>
</g>
</svg>
