<?xml version="1.0" encoding="utf-8"?>
<!-- Generator: Adobe Illustrator 22.0.1, SVG Export Plug-In . SVG Version: 6.00 Build 0)  -->
<svg version="1.1" id="Layer_1" xmlns="http://www.w3.org/2000/svg" xmlns:xlink="http://www.w3.org/1999/xlink" x="0px" y="0px"
	 viewBox="0 0 40 40" style="enable-background:new 0 0 40 40;" xml:space="preserve">
<g>
	<g transform="translate(0.000000,618.000000) scale(0.100000,-0.100000)">
		<path d="M235.8,6166.8c-9.8-13.5-14.6-24.4-16.6-37.3c-2.3-15.4,0.3-32.1,7.4-47.3c13.3-28.8,43.2-52.2,74-58
			c8.4-1.5,30.4-1.5,37.8,0.1c14.9,3.2,26.8,9.3,37.5,19.2c4.6,4.3,12.7,14.9,15.8,20.7l2.2,4l-3.7-4c-15.4-16.9-38.9-23-68.3-18
			c-22.8,3.9-41.7,13.6-57.7,29.4c-27.7,27.5-37.1,65.1-23.8,95.6c0.8,1.8,1.4,3.3,1.3,3.3C241.5,6174.6,238.8,6171.1,235.8,6166.8z
			"/>
		<path d="M145.5,6139.7c-11.4-16.2-15.9-23.8-19.9-34.1c-8.7-22-10-49.6-3.5-75.2c4.1-16.3,10.9-30.9,21.5-46.9
			c6.8-10.2,9.6-13.6,18.5-22.5c20.5-20.6,42.7-34.4,69.4-43.2c21.6-7.1,55.1-7.9,81.7-2.2c36.4,7.9,66.5,30.2,85,62.8
			c3,5.3,7.4,14.8,7.4,16.1c0,0.4-1.5-1.2-3.2-3.5c-9.9-13.1-27.4-26.4-43.6-33.5c-18.6-8-36.6-11.3-58.2-10.6
			c-77.9,2.4-147.5,64.1-156.6,138.9c-2.6,21.5,1.7,47.3,10.9,65.6c1,2,1.8,3.6,1.7,3.6C156.4,6154.9,151.5,6148,145.5,6139.7z"/>
		<path d="M39.5,6102.1c-15.7-19.9-18.7-24.3-24.1-35.1c-11.2-22.7-16.3-47.4-15.3-73.3c3.1-81.2,58-157.4,138.5-192.2
			c20.8-9,36.1-12.8,60.1-15.2c14.9-1.4,42-1,54.6,1c34.7,5.1,64,17.5,89.6,37.7c20.4,16.1,42.5,43.9,51.6,65l1.7,3.8l-3-3.5
			c-18.6-21.5-39.8-35.8-66.7-45.1c-20.5-7-39.8-10.1-64.3-10.1c-26.3,0-46.9,3-68,9.9c-28.8,9.4-55.5,24.3-78.9,43.8
			c-9.5,8-25,23.7-32.3,33c-26.3,32.9-41.5,69.4-45.6,109.4c-1,9.3-0.4,31.9,1,40.8c2.2,14.4,6.7,29.6,12.1,41.1
			c1.5,3.2,2.7,5.9,2.5,5.9S46.7,6111.2,39.5,6102.1z"/>
	</g>
</g>
</svg>
