<?xml version="1.0" encoding="utf-8"?>
<!-- Generator: Adobe Illustrator 22.0.1, SVG Export Plug-In . SVG Version: 6.00 Build 0)  -->
<svg version="1.1" id="Layer_1" xmlns="http://www.w3.org/2000/svg" xmlns:xlink="http://www.w3.org/1999/xlink" x="0px" y="0px"
	 viewBox="0 0 80 80" style="enable-background:new 0 0 80 80;" xml:space="preserve">
<style type="text/css">
	.st0{fill:#90278E;}
</style>
<g>
	<path class="st0" d="M61.4,66.5h-8.7c-0.3,0-0.6-0.3-0.6-0.6v-2.1c0-0.3-0.3-0.6-0.6-0.6H39.4c-0.3,0-0.6,0.3-0.6,0.6v2.1
		c0,0.3-0.3,0.6-0.6,0.6h-6.6c-0.3,0-0.6,0.3-0.6,0.6v2.5c0,0.3,0.3,0.6,0.6,0.6h29.8c0.3,0,0.6-0.3,0.6-0.6v-2.5
		C62,66.7,61.7,66.5,61.4,66.5z"/>
	<g>
		<path class="st0" d="M76.1,9.1H13.8c-2.2,0-3.9,1.8-3.9,3.9c0,0,0,7.5,0,10.2c0,1.4-0.1,1.5,0.8,1.5c0.5,0,1,0,1.6,0
			c0.8,0,0.6-0.2,0.6-1.6c0-2.7,0-10.2,0-10.2c0-0.5,0.4-1,1-1h62.2c0.5,0,1,0.4,1,1v38.3H32.7c0,0-1.6,0-1.6,2c0,1.2,0,3.6,0,4.8
			c0,2,1.6,2,1.6,2h43.4c2.2,0,3.9-1.8,3.9-3.9V13C80,10.8,78.2,9.1,76.1,9.1z M45,56.8c-1,0-1.8-0.8-1.8-1.8s0.8-1.8,1.8-1.8
			s1.8,0.8,1.8,1.8S45.9,56.8,45,56.8z"/>
		<path class="st0" d="M25,28.3H2.5c-1.4,0-2.5,1.1-2.5,2.5v37c0,1.4,1.1,2.5,2.5,2.5H25c1.4,0,2.5-1.1,2.5-2.5v-37
			C27.6,29.4,26.4,28.3,25,28.3z M11,30.9h5.6c0.3,0,0.5,0.2,0.5,0.5s-0.2,0.5-0.5,0.5H11c-0.3,0-0.5-0.2-0.5-0.5S10.7,30.9,11,30.9
			z M13.8,68.6c-0.7,0-1.3-0.6-1.3-1.3S13,66,13.8,66s1.3,0.6,1.3,1.3S14.5,68.6,13.8,68.6z M25.4,64.7c0,0.3-0.3,0.6-0.6,0.6h-22
			c-0.3,0-0.6-0.3-0.6-0.6V34c0-0.3,0.3-0.6,0.6-0.6h22c0.3,0,0.6,0.3,0.6,0.6V64.7z"/>
	</g>
</g>
</svg>
