<?xml version="1.0" encoding="utf-8"?>
<!-- Generator: Adobe Illustrator 22.0.1, SVG Export Plug-In . SVG Version: 6.00 Build 0)  -->
<svg version="1.1" id="Layer_1" xmlns="http://www.w3.org/2000/svg" xmlns:xlink="http://www.w3.org/1999/xlink" x="0px" y="0px"
	 viewBox="0 0 40 40" style="enable-background:new 0 0 40 40;" xml:space="preserve">
<g>
	<path d="M14.3,29.3c-0.6-2.2-1.3-4.3-1.9-6.5c-0.7-2.1-1.2-4.3-2-6.4c-0.1,0-0.1,0-0.2,0c-1.3,4.3-2.6,8.6-3.9,13c0,0-0.1,0-0.1,0
		c-0.2-0.8-0.5-1.6-0.7-2.4c-0.4-1.4-0.9-2.8-1.3-4.3c-0.3-1.1-0.6-2.2-1-3.3c-0.4-1.5-0.9-3-1.3-4.4c-0.3-1.1-0.6-2.2-0.9-3.2
		c-0.3-0.9-0.6-1.9-0.8-2.8C-0.1,8.3,0,8.2,0.7,8.2c0.5,0,0.9,0,1.4,0c0.2,0,0.5,0.2,0.5,0.4C3,10,3.4,11.4,3.8,12.7
		c0.5,1.7,1,3.3,1.5,5c0.3,0.9,0.5,1.7,0.7,2.6c0.1,0.2,0.2,0.4,0.3,0.6c0,0,0.1,0,0.1,0c0.1-0.3,0.2-0.6,0.3-0.9
		c0.5-1.7,1-3.5,1.5-5.2C8.6,14,8.8,13.3,9,12.5c0.1-0.4-0.1-0.8-0.2-1.2C8.5,10.4,8.2,9.6,8,8.7C7.8,8.3,7.9,8.2,8.4,8.2
		c0.5,0,1,0,1.6,0c0.3,0,0.5,0.2,0.6,0.5c0.4,1.5,0.9,2.9,1.3,4.3c0.4,1.4,0.8,2.8,1.2,4.2c0.3,1.1,0.6,2.2,1,3.3
		c0,0.2,0.2,0.3,0.3,0.5c0.1-0.4,0.3-0.6,0.3-0.9c0.6-1.9,1.1-3.9,1.7-5.8c0.6-1.9,1.2-3.8,1.7-5.7c0.1-0.4,0.3-0.4,0.6-0.4
		c2,0,4,0,6,0c1.1,0,2.2,0,3.2,0c0.4,0,0.5,0.1,0.5,0.5c0.1,0.8-0.5,1.4-0.8,2c-0.9,1.7-1.9,3.3-2.8,4.9c-0.2,0.4-0.1,0.6,0.2,0.7
		c1.9,0.8,3,2.3,3.4,4.3c0.4,1.7,0.3,3.4-0.3,5c-0.9,2.4-2.7,3.9-5.4,3.7c-1.8-0.1-3-1.1-3.9-2.6c-0.2-0.4-0.4-0.8-0.6-1.2
		c-0.1-0.3,0-0.4,0.2-0.5c0.4-0.2,0.9-0.3,1.3-0.5c0.3-0.1,0.4,0,0.6,0.2c0.4,0.6,0.7,1.2,1.2,1.6c1.2,1,2.7,0.9,3.5-0.5
		c1.1-1.8,1.2-3.8,0.3-5.7c-0.5-1.1-1.5-1.6-2.6-1.7c-0.4,0-0.8,0-1.3,0c-0.3,0-0.4-0.1-0.4-0.4c0-0.5,0.1-0.9,0.3-1.3
		c1.1-1.8,2.1-3.6,3.1-5.4c0.3-0.5,0.2-0.6-0.4-0.6c-1.1,0-2.3,0-3.4,0c-0.5,0-0.7,0.2-0.9,0.6c-0.4,1.3-0.8,2.7-1.2,4
		c-0.3,1.1-0.7,2.2-1,3.3c-0.3,1.1-0.7,2.3-1,3.4c-0.4,1.4-0.9,2.9-1.3,4.3c-0.3,0.9-0.5,1.7-0.8,2.6c0,0.1-0.1,0.2-0.1,0.3
		C14.4,29.3,14.4,29.3,14.3,29.3z"/>
	<path d="M39.5,8.2c0.1,0.3,0.2,0.5,0.2,0.8c0.1,0.4,0.2,0.9,0.2,1.3c0,0.2,0,0.5-0.1,0.7c-0.4,0.8-0.8,1.6-1.2,2.3
		c-0.2,0.3-0.3,0.3-0.5,0c-0.5-0.8-1.1-1.5-1.9-1.9c-1-0.5-1.9-0.3-2.8,0.3c-1,0.8-1.6,1.9-2,3.2c-0.5,1.5-0.6,3-0.5,4.6
		c0,0.1,0,0.2,0,0.3c0,0-0.1,0-0.1,0c-0.2-0.5-0.4-1-0.5-1.6c-0.3-1.6-0.3-3.2,0-4.8c0.4-1.8,1-3.5,2.6-4.7c1-0.7,2-0.7,3-0.1
		c0.8,0.4,1.3,1.1,1.8,1.8c0.2,0.4,0.3,0.4,0.5,0c0.4-0.8,0.8-1.5,1.2-2.3C39.4,8.2,39.4,8.2,39.5,8.2z"/>
	<path d="M39.6,23.5c0.3,1.1,0.7,2,0,2.9c-0.8,1-1.6,2-2.7,2.6c-1.8,0.8-3.4,0.4-4.8-0.8c-1.3-1.1-2.1-2.6-2.7-4.2
		c0-0.1,0-0.1,0.1-0.3c0.2,0.3,0.4,0.5,0.5,0.8c0.8,1.2,1.9,2.2,3.3,2.6c1.7,0.5,3.2-0.1,4.4-1.3c0.6-0.5,1-1.2,1.5-1.8
		C39.4,23.9,39.5,23.7,39.6,23.5z"/>
</g>
</svg>
