<?xml version="1.0" encoding="utf-8"?>
<!-- Generator: Adobe Illustrator 22.0.1, SVG Export Plug-In . SVG Version: 6.00 Build 0)  -->
<svg version="1.1" id="Layer_1" xmlns="http://www.w3.org/2000/svg" xmlns:xlink="http://www.w3.org/1999/xlink" x="0px" y="0px"
	 viewBox="0 0 50 50" style="enable-background:new 0 0 50 50;" xml:space="preserve">
<style type="text/css">
	.st0{clip-path:url(#SVGID_2_);fill:#90278E;}
	.st1{clip-path:url(#SVGID_2_);fill:#FFFFFF;}
</style>
<g>
	<defs>
		<rect id="SVGID_1_" x="0.6" width="48.8" height="50"/>
	</defs>
	<clipPath id="SVGID_2_">
		<use xlink:href="#SVGID_1_"  style="overflow:visible;"/>
	</clipPath>
	<path class="st0" d="M48.5,24.9c0,13.7-10.6,24.9-23.7,24.9c-13.1,0-23.7-11.1-23.7-24.9C1.2,11.1,11.8,0,24.9,0
		C37.9,0,48.5,11.1,48.5,24.9"/>
	<path class="st1" d="M38.2,7.3c0,3.2-0.9,6.5-2.6,9.8c-1.7,3.2-3.8,5.7-6.4,7.8c-2.9,2.2-5.9,3.3-9,3.3c-1.1,0-2-0.6-2.7-1.8
		c-0.3-0.5-0.7-1.6-1.3-3.3c-1,0.5-2.4,1.5-4.3,3c-2.1,1.7-3.6,2.9-4.4,3.5c-1.8,1.1-3.3,1.7-4.8,1.7c-1.1,0-1.8-0.5-2.1-1.4
		c0.2-0.8,1.5-3.2,4.1-7.2c2-3,3.6-5.5,5-7.4c2.1-3,3.4-4.6,3.8-4.7c0.9,0.5,1.3,1.1,1.3,2c0,0.6-0.9,2-2.7,4.1
		c-2.9,3.5-4.6,5.6-5,6.2c-1.8,2.5-2.7,4.4-2.7,5.7c2.5-0.8,5-2.3,7.5-4.5c1.6-1.4,3.3-3.4,5.2-5.8c1.6-2,2.5-3.1,2.7-3.2
		c0.5,0.6,0.8,1.3,0.8,2.1c0,0.7-0.2,1.6-0.5,2.5c-0.8,2.2-1.2,3.5-1.2,4c0,0.7,0.2,1.2,0.6,1.7c0.4,0.5,0.9,0.7,1.6,0.7
		c0.8,0,1.6-0.3,2.6-0.8c2.4-1.4,4.2-2.6,5.5-3.5c1.9-1.5,3.4-3.1,4.5-4.7c1.9-2.9,2.8-6.2,2.8-9.9c0-0.8-0.2-1.5-0.5-2.2
		c-0.4-0.7-0.8-1.2-1.5-1.4c-0.4,0.1-1.3,0.6-2.7,1.4V4.2c0-0.8,0.3-1.4,0.8-1.9c0.5-0.5,1.2-0.7,2-0.7c1.2,0,2.1,0.7,2.7,2.1
		C37.9,4.8,38.2,6,38.2,7.3"/>
	<path class="st1" d="M46.1,20.9c0-0.9-0.6-1.4-1.8-1.4c-0.5,0-1,0.1-1.7,0.3c-9.7,2.7-15.3,6.5-16.6,11.5l0.3,0.3l1.4,0.1
		c1.4,0.1,3.8-0.7,7.3-2.4c3-1.4,5.3-2.7,7-3.9C44.8,23.7,46.1,22.1,46.1,20.9 M49.4,19.7c0,3.8-4.8,7.6-14.3,11.4
		c-1.5,0.6-4.3,1.6-8.2,3.2c1.6,1.7,3.1,3.8,4.6,6.2c1.7,2.9,2.6,5.3,2.6,7.1c0,1.5-0.8,2.3-2.5,2.5c0-2.3-0.7-5-2.1-8.1
		c-1.6-3.7-3.4-5.5-5.3-5.5c-1,0-1.8,0.8-2.5,2.5c-0.8,1.9-1.6,3-2.3,3.2c-0.6-0.1-1-0.2-1-0.2c-0.4-0.2-0.6-0.4-0.6-0.7
		c0.4-0.3,1-1.2,1.9-2.6c0.9-1.5,1.4-2.4,1.6-2.9l-0.7-0.8c0.1-0.4,1.5-1.9,4.1-4.5c1.1-1.1,1.6-2.3,1.6-3.6c0-0.5-0.1-1.1-0.2-1.7
		c0.4-0.6,1-1.3,1.7-2c0.2-0.1,0.9-0.7,2.1-1.8c0.3,0.2,0.8,0.3,1.5,0.3c1.3,0,2.9-0.3,4.8-1l5.6-2.1c1.9-0.7,3.6-1,5.2-1
		C48.5,17.5,49.4,18.2,49.4,19.7"/>
</g>
</svg>
