<?xml version="1.0" encoding="utf-8"?>
<!-- Generator: Adobe Illustrator 22.0.1, SVG Export Plug-In . SVG Version: 6.00 Build 0)  -->
<svg version="1.1" id="Capa_1" xmlns="http://www.w3.org/2000/svg" xmlns:xlink="http://www.w3.org/1999/xlink" x="0px" y="0px"
	 viewBox="0 0 292.7 300.2" style="enable-background:new 0 0 292.7 300.2;" xml:space="preserve">
<style type="text/css">
	.st0{clip-path:url(#SVGID_2_);}
	.st1{clip-path:url(#SVGID_4_);fill:#90278E;}
	.st2{clip-path:url(#SVGID_4_);fill:#FFFFFF;}
</style>
<g>
	<defs>
		<path id="SVGID_1_" d="M289.7,150.1c0,82.3-63.6,149.1-142,149.1c-78.4,0-142-66.7-142-149.1C5.6,67.7,69.2,1,147.6,1
			C226.1,1,289.7,67.7,289.7,150.1"/>
	</defs>
	<clipPath id="SVGID_2_">
		<use xlink:href="#SVGID_1_"  style="overflow:visible;"/>
	</clipPath>
	<g class="st0">
		<defs>
			<rect id="SVGID_3_" x="2" y="1" width="292.7" height="299.9"/>
		</defs>
		<clipPath id="SVGID_4_">
			<use xlink:href="#SVGID_3_"  style="overflow:visible;"/>
		</clipPath>
		<path class="st1" d="M289.7,150.1c0,82.3-63.6,149.1-142,149.1c-78.4,0-142-66.7-142-149.1C5.6,67.7,69.2,1,147.6,1
			C226.1,1,289.7,67.7,289.7,150.1"/>
		<path class="st2" d="M227.5,45.1c0,19.4-5.2,38.9-15.6,58.6c-10.1,18.9-22.9,34.5-38.6,46.6c-17.3,13.4-35.3,20.1-53.9,20.1
			c-6.5,0-11.8-3.7-16-11.1c-1.8-3.2-4.4-9.9-7.7-19.9c-6.2,3.1-14.7,9.2-25.5,18.2c-12.5,10.5-21.4,17.4-26.6,20.8
			c-10.5,6.6-20.1,9.9-28.7,9.9c-6.6,0-10.9-2.8-12.9-8.3c0.9-4.6,9.2-19,24.8-43.2c11.9-18.2,21.8-32.9,29.8-44.3
			c12.8-18,20.5-27.5,23-28.4c5.3,2.8,7.9,6.9,7.9,12.2c0,3.5-5.3,11.8-16,24.7c-17.4,21.1-27.5,33.4-30,36.9
			c-10.7,14.8-16,26.2-16,34.4c15.2-4.6,30.3-13.7,45.2-27.2c9.5-8.6,19.9-20.2,31.1-34.6c9.5-12.2,14.8-18.5,16-18.9
			c3.2,3.7,4.7,7.8,4.7,12.5c0,4.3-1.1,9.3-3.2,15c-4.8,12.9-7.2,21-7.2,24.2c0,4,1.2,7.4,3.7,10.3c2.5,2.9,5.7,4.3,9.6,4.3
			c4.7,0,9.9-1.7,15.6-5.1c14.3-8.5,25.2-15.6,32.7-21.2c11.4-8.9,20.4-18.4,26.8-28.4c11.3-17.4,16.9-37.2,16.9-59.3
			c0-4.6-1-9.1-3.2-13.3c-2.1-4.2-5-7-8.8-8.4c-2.6,0.6-8.1,3.5-16.5,8.5v-4.4c0-4.8,1.6-8.6,5-11.5c3.3-2.9,7.4-4.4,12.2-4.4
			c7.1,0,12.6,4.2,16.5,12.5C225.9,29.5,227.5,36.9,227.5,45.1"/>
		<path class="st2" d="M275.3,126.6c0-5.5-3.5-8.3-10.6-8.3c-2.7,0-6,0.5-9.9,1.6C196.4,136,163.2,159,155,188.7l2,2.1l8.4,0.5
			c8.1,0.5,22.7-4.3,43.8-14.3c17.9-8.3,32-16,42.2-23.1C267.4,142.9,275.3,133.8,275.3,126.6 M294.7,119.2
			c0,23.1-28.7,45.8-86,68.1c-9.2,3.5-25.7,9.8-49.4,18.9c9.6,10.2,18.7,22.5,27.3,37.2c10.2,17.5,15.4,31.7,15.4,42.5
			c0,9.1-5,14.1-15.1,15c0-14-4.1-30.2-12.4-48.7c-9.8-22-20.4-33-31.8-33c-5.7,0-10.7,5.1-15.1,15.2c-5,11.4-9.6,17.9-14,19.4
			c-3.8-0.8-5.8-1.2-6.1-1.4c-2.4-0.9-3.5-2.2-3.4-3.9c2.3-1.7,6.1-6.9,11.6-15.7c5.5-8.8,8.7-14.6,9.6-17.5l-4.3-4.6
			c0.6-2.3,8.7-11.2,24.4-26.8c6.3-6.3,9.5-13.5,9.5-21.7c0-3.1-0.5-6.5-1.4-10.2c2.4-3.9,5.9-7.9,10.4-12
			c0.9-0.8,5.1-4.3,12.6-10.6c1.7,1.1,4.7,1.6,9,1.6c7.8,0,17.4-2.1,28.7-6.2l33.9-12.5c11.3-4.2,21.7-6.2,31.1-6.2
			C289.6,106,294.7,110.4,294.7,119.2"/>
	</g>
</g>
</svg>
